<svg width="17" height="17" viewBox="0 0 17 17" fill="none" xmlns="http://www.w3.org/2000/svg">
    <path d="M3.723 0H13.277C15.3332 0 17 1.6668 17 3.723V13.277C17 15.3332 15.3332 17 13.277 17H3.723C1.6668 17 0 15.3332 0 13.277V3.723C0 1.6668 1.6668 0 3.723 0Z" fill="url(#paint0_linear_4022_909)"/>
    <path d="M5.44762 12.3398L5.44921 12.3404L4.86796 13.3471C4.65579 13.7146 4.1859 13.8405 3.81841 13.6283C3.45098 13.4162 3.32501 12.9463 3.53718 12.5788L3.96536 11.8371L4.00647 11.766C4.07985 11.6605 4.26094 11.4785 4.62318 11.5127C4.62318 11.5127 5.47564 11.6052 5.53733 12.0482C5.53733 12.0482 5.5457 12.1941 5.44762 12.3399V12.3398ZM13.6915 9.76857H11.879C11.7555 9.76027 11.7017 9.71618 11.6804 9.69054L11.6791 9.68822L9.73892 6.32766L9.7364 6.32932L9.62005 6.16251C9.42934 5.87086 9.12652 6.61673 9.12652 6.61673C8.76494 7.44787 9.17786 8.39277 9.32176 8.67838L12.0167 13.3461C12.2288 13.7135 12.6986 13.8395 13.0662 13.6272C13.4336 13.4151 13.5596 12.9452 13.3474 12.5777L12.6735 11.4105C12.6605 11.3822 12.6378 11.3055 12.7759 11.3051H13.6915C14.1158 11.3051 14.4598 10.9612 14.4598 10.5368C14.4598 10.1125 14.1158 9.7685 13.6915 9.7685V9.76857ZM10.171 10.813C10.171 10.813 10.2678 11.3051 9.89345 11.3051H3.19313C2.76879 11.3051 2.4248 10.9612 2.4248 10.5368C2.4248 10.1125 2.76879 9.7685 3.19313 9.7685H4.9157C5.19381 9.75243 5.25969 9.59186 5.25969 9.59186L5.26128 9.59266L7.5098 5.69807L7.50913 5.69793C7.55011 5.6227 7.51597 5.55157 7.51006 5.54035L6.76744 4.25413C6.55527 3.8867 6.68118 3.41675 7.04867 3.20464C7.41616 2.99248 7.88605 3.11832 8.09822 3.48581L8.44261 4.08234L8.78639 3.48687C8.99856 3.11945 9.46845 2.99347 9.83594 3.20571C10.2034 3.41788 10.3293 3.8877 10.1172 4.25519L6.98824 9.67461C6.97456 9.70761 6.97038 9.75941 7.07218 9.7685H8.94244L8.94284 9.78677C8.94284 9.78677 10.0238 9.80357 10.171 10.813Z" fill="white"/>
    <defs>
        <linearGradient id="paint0_linear_4022_909" x1="8.5" y1="0" x2="8.5" y2="17" gradientUnits="userSpaceOnUse">
            <stop stop-color="#17C9FB"/>
            <stop offset="1" stop-color="#1A74E8"/>
        </linearGradient>
    </defs>
</svg>