<svg width="20" height="25" viewBox="0 0 20 25" fill="none" xmlns="http://www.w3.org/2000/svg">
    <path d="M1.66667 24.4444C1.22222 24.4444 0.833333 24.2778 0.5 23.9444C0.166666 23.6111 0 23.2222 0 22.7778V1.66667C0 1.22222 0.166666 0.833333 0.5 0.5C0.833333 0.166667 1.22222 0 1.66667 0H10.5556V1.66667H1.66667V2.5H10.5556V4.16667H1.66667V20.2778H13.8889V16.6667H15.5556V22.7778C15.5556 23.2222 15.3889 23.6111 15.0556 23.9444C14.7222 24.2778 14.3333 24.4444 13.8889 24.4444H1.66667ZM14.8333 14.0556L9.66667 8.88889L10.8333 7.72222L14 10.8611V2.5H15.6667V10.8611L18.8333 7.72222L20 8.88889L14.8333 14.0556ZM1.66667 2.5V1.66667V2.5ZM1.66667 21.9444V22.7778H13.8889V21.9444H1.66667ZM1.66667 22.7778V21.9444V22.7778Z" fill="#FFFFFF"/>
</svg>
