<svg width="20" height="18" viewBox="0 0 20 18" fill="none" xmlns="http://www.w3.org/2000/svg">
    <path d="M4.09091 14.5455C3.72727 14.5455 3.40909 14.4091 3.13636 14.1364C2.86364 13.8636 2.72727 13.5455 2.72727 13.1818V1.36364C2.72727 1 2.86364 0.681818 3.13636 0.409091C3.40909 0.136364 3.72727 0 4.09091 0H9.65909L11.0227 1.36364H18.6364C19 1.36364 19.3182 1.5 19.5909 1.77273C19.8636 2.04545 20 2.36364 20 2.72727V13.1818C20 13.5455 19.8636 13.8636 19.5909 14.1364C19.3182 14.4091 19 14.5455 18.6364 14.5455H4.09091ZM4.09091 13.1818H18.6364V2.72727H10.4545L9.09091 1.36364H4.09091V13.1818ZM17.5 17.2727H1.36364C1 17.2727 0.681818 17.1364 0.409091 16.8636C0.136364 16.5909 0 16.2727 0 15.9091V2.72727H1.36364V15.9091H17.5V17.2727ZM6.68182 10.6591H16.0455L13.0455 6.65909L10.5455 9.97727L8.75 8.02273L6.68182 10.6591ZM4.09091 13.1818V1.36364V13.1818Z" fill="#E05929"/>
</svg>