<svg width="20" height="20" viewBox="0 0 20 20" fill="none" xmlns="http://www.w3.org/2000/svg">
    <path d="M10 8.88889C7.01852 8.88889 4.60648 8.43519 2.76389 7.52778C0.921297 6.62037 0 5.59259 0 4.44444C0 3.27778 0.921297 2.24537 2.76389 1.34722C4.60648 0.449074 7.01852 0 10 0C12.9815 0 15.3935 0.449074 17.2361 1.34722C19.0787 2.24537 20 3.27778 20 4.44444C20 5.59259 19.0787 6.62037 17.2361 7.52778C15.3935 8.43519 12.9815 8.88889 10 8.88889ZM10 14.4444C7.2963 14.4444 4.9537 14.037 2.97222 13.2222C0.990741 12.4074 0 11.4259 0 10.2778V7.5C0 8.22222 0.347222 8.84722 1.04167 9.375C1.73611 9.90278 2.59722 10.338 3.625 10.6806C4.65278 11.0231 5.74537 11.2731 6.90278 11.4306C8.06019 11.588 9.09259 11.6667 10 11.6667C10.9259 11.6667 11.963 11.588 13.1111 11.4306C14.2593 11.2731 15.3472 11.0278 16.375 10.6944C17.4028 10.3611 18.2639 9.93056 18.9583 9.40278C19.6528 8.875 20 8.24074 20 7.5V10.2778C20 11.4259 19.0093 12.4074 17.0278 13.2222C15.0463 14.037 12.7037 14.4444 10 14.4444ZM10 20C7.2963 20 4.9537 19.5926 2.97222 18.7778C0.990741 17.963 0 16.9815 0 15.8333V13.0556C0 13.7778 0.347222 14.4028 1.04167 14.9306C1.73611 15.4583 2.59722 15.8935 3.625 16.2361C4.65278 16.5787 5.74537 16.8287 6.90278 16.9861C8.06019 17.1435 9.09259 17.2222 10 17.2222C10.9259 17.2222 11.963 17.1435 13.1111 16.9861C14.2593 16.8287 15.3472 16.5833 16.375 16.25C17.4028 15.9167 18.2639 15.4861 18.9583 14.9583C19.6528 14.4306 20 13.7963 20 13.0556V15.8333C20 16.9815 19.0093 17.963 17.0278 18.7778C15.0463 19.5926 12.7037 20 10 20Z" fill="#E05929"/>
</svg>