<svg width="16" height="17" viewBox="0 0 16 17" fill="none" xmlns="http://www.w3.org/2000/svg">
    <path d="M11.8045 11.1189C13.8338 10.0111 15.3722 9.16692 15.5048 9.10128C15.929 8.87702 16.367 8.28341 15.5048 7.82233C15.2264 7.67731 13.7276 6.85944 11.8045 5.80469L9.13867 8.48151L11.8045 11.1189Z" fill="#FFD900"/>
    <path d="M9.1378 8.48047L0.649414 16.9863C0.848656 17.0125 1.07359 16.96 1.33879 16.8151C1.89557 16.512 7.79793 13.3073 11.8037 11.1185L9.1378 8.48047Z" fill="#F43249"/>
    <path d="M9.13829 8.48103L11.8041 5.81739C11.8041 5.81739 1.93632 0.463067 1.33929 0.146995C1.11435 0.0145368 0.86228 -0.024809 0.636719 0.0145368L9.13829 8.48103Z" fill="#00EE76"/>
    <path d="M9.13819 8.48017L0.636612 0.0136719C0.29158 0.0929851 0 0.396066 0 1.0159V15.9838C0 16.5511 0.225624 16.9597 0.649803 16.9991L9.13819 8.48017Z" fill="#00D3FF"/>
</svg>