<svg width="20" height="20" viewBox="0 0 20 20" fill="none" xmlns="http://www.w3.org/2000/svg">
    <path d="M4.875 19.1667C4.22222 19.1667 3.66319 18.934 3.19792 18.4687C2.73264 18.0035 2.5 17.4444 2.5 16.7917C2.5 16.125 2.73264 15.5625 3.19792 15.1042C3.66319 14.6458 4.22222 14.4167 4.875 14.4167C5.06944 14.4167 5.23958 14.434 5.38542 14.4687C5.53125 14.5035 5.68056 14.5556 5.83333 14.625L7.60417 12.4167C7.34028 12.0972 7.13889 11.7326 7 11.3229C6.86111 10.9132 6.82639 10.4861 6.89583 10.0417L4.375 9.1875C4.16667 9.53472 3.89236 9.80556 3.55208 10C3.21181 10.1944 2.81944 10.2917 2.375 10.2917C1.72222 10.2917 1.16319 10.059 0.697917 9.59375C0.232639 9.12847 0 8.56944 0 7.91667C0 7.25 0.232639 6.6875 0.697917 6.22917C1.16319 5.77083 1.72222 5.54167 2.375 5.54167C3.04167 5.54167 3.60417 5.77083 4.0625 6.22917C4.52083 6.6875 4.75 7.25 4.75 7.91667V8L7.29167 8.875C7.54167 8.43056 7.84375 8.09028 8.19792 7.85417C8.55208 7.61806 8.94444 7.45139 9.375 7.35417V4.66667C8.83333 4.51389 8.40625 4.21528 8.09375 3.77083C7.78125 3.32639 7.625 2.86111 7.625 2.375C7.625 1.70833 7.85764 1.14583 8.32292 0.6875C8.78819 0.229167 9.34722 0 10 0C10.6667 0 11.2292 0.229167 11.6875 0.6875C12.1458 1.14583 12.375 1.70833 12.375 2.375C12.375 2.86111 12.2153 3.32639 11.8958 3.77083C11.5764 4.21528 11.1528 4.51389 10.625 4.66667V7.35417C11.0556 7.45139 11.4514 7.61806 11.8125 7.85417C12.1736 8.09028 12.4792 8.43056 12.7292 8.875L15.25 8V7.91667C15.25 7.25 15.4826 6.6875 15.9479 6.22917C16.4132 5.77083 16.9722 5.54167 17.625 5.54167C18.2917 5.54167 18.8542 5.77083 19.3125 6.22917C19.7708 6.6875 20 7.25 20 7.91667C20 8.56944 19.7708 9.12847 19.3125 9.59375C18.8542 10.059 18.2917 10.2917 17.625 10.2917C17.1806 10.2917 16.7847 10.1944 16.4375 10C16.0903 9.80556 15.8194 9.53472 15.625 9.1875L13.1042 10.0417C13.1736 10.4861 13.1424 10.9132 13.0104 11.3229C12.8785 11.7326 12.6736 12.0972 12.3958 12.4167L14.1667 14.625C14.3194 14.5556 14.4687 14.5035 14.6146 14.4687C14.7604 14.434 14.9306 14.4167 15.125 14.4167C15.7917 14.4167 16.3542 14.6458 16.8125 15.1042C17.2708 15.5625 17.5 16.125 17.5 16.7917C17.5 17.4444 17.2708 18.0035 16.8125 18.4687C16.3542 18.934 15.7917 19.1667 15.125 19.1667C14.4722 19.1667 13.9132 18.934 13.4479 18.4687C12.9826 18.0035 12.75 17.4444 12.75 16.7917C12.75 16.5139 12.7882 16.2639 12.8646 16.0417C12.941 15.8194 13.0486 15.6042 13.1875 15.3958L11.4167 13.1875C10.9722 13.4236 10.4965 13.5417 9.98958 13.5417C9.48264 13.5417 9.00694 13.4236 8.5625 13.1875L6.8125 15.4167C6.95139 15.625 7.05903 15.8368 7.13542 16.0521C7.21181 16.2674 7.25 16.5139 7.25 16.7917C7.25 17.4444 7.02083 18.0035 6.5625 18.4687C6.10417 18.934 5.54167 19.1667 4.875 19.1667ZM2.375 9.04167C2.69444 9.04167 2.96181 8.93403 3.17708 8.71875C3.39236 8.50347 3.5 8.23611 3.5 7.91667C3.5 7.59722 3.39236 7.32986 3.17708 7.11458C2.96181 6.89931 2.69444 6.79167 2.375 6.79167C2.05556 6.79167 1.78819 6.89931 1.57292 7.11458C1.35764 7.32986 1.25 7.59722 1.25 7.91667C1.25 8.23611 1.35764 8.50347 1.57292 8.71875C1.78819 8.93403 2.05556 9.04167 2.375 9.04167V9.04167ZM4.875 17.9167C5.19444 17.9167 5.46181 17.809 5.67708 17.5937C5.89236 17.3785 6 17.1111 6 16.7917C6 16.4722 5.89236 16.2049 5.67708 15.9896C5.46181 15.7743 5.19444 15.6667 4.875 15.6667C4.55556 15.6667 4.28819 15.7743 4.07292 15.9896C3.85764 16.2049 3.75 16.4722 3.75 16.7917C3.75 17.1111 3.85764 17.3785 4.07292 17.5937C4.28819 17.809 4.55556 17.9167 4.875 17.9167ZM10 3.5C10.3194 3.5 10.5868 3.39236 10.8021 3.17708C11.0174 2.96181 11.125 2.69444 11.125 2.375C11.125 2.05556 11.0174 1.78819 10.8021 1.57292C10.5868 1.35764 10.3194 1.25 10 1.25C9.68056 1.25 9.41319 1.35764 9.19792 1.57292C8.98264 1.78819 8.875 2.05556 8.875 2.375C8.875 2.69444 8.98264 2.96181 9.19792 3.17708C9.41319 3.39236 9.68056 3.5 10 3.5ZM10.0208 12.2917C10.5347 12.2917 10.9722 12.1076 11.3333 11.7396C11.6944 11.3715 11.875 10.9236 11.875 10.3958C11.875 9.88194 11.6944 9.44444 11.3333 9.08333C10.9722 8.72222 10.5278 8.54167 10 8.54167C9.48611 8.54167 9.04514 8.72222 8.67708 9.08333C8.30903 9.44444 8.125 9.88889 8.125 10.4167C8.125 10.9306 8.30903 11.3715 8.67708 11.7396C9.04514 12.1076 9.49306 12.2917 10.0208 12.2917ZM15.125 17.9167C15.4444 17.9167 15.7118 17.809 15.9271 17.5937C16.1424 17.3785 16.25 17.1111 16.25 16.7917C16.25 16.4722 16.1424 16.2049 15.9271 15.9896C15.7118 15.7743 15.4444 15.6667 15.125 15.6667C14.8056 15.6667 14.5382 15.7743 14.3229 15.9896C14.1076 16.2049 14 16.4722 14 16.7917C14 17.1111 14.1076 17.3785 14.3229 17.5937C14.5382 17.809 14.8056 17.9167 15.125 17.9167ZM17.625 9.04167C17.9444 9.04167 18.2118 8.93403 18.4271 8.71875C18.6424 8.50347 18.75 8.23611 18.75 7.91667C18.75 7.59722 18.6424 7.32986 18.4271 7.11458C18.2118 6.89931 17.9444 6.79167 17.625 6.79167C17.3056 6.79167 17.0382 6.89931 16.8229 7.11458C16.6076 7.32986 16.5 7.59722 16.5 7.91667C16.5 8.23611 16.6076 8.50347 16.8229 8.71875C17.0382 8.93403 17.3056 9.04167 17.625 9.04167Z" fill="#E05929"/>
</svg>