<svg width="20" height="18" viewBox="0 0 20 18" fill="none" xmlns="http://www.w3.org/2000/svg">
    <path d="M10 17.7273C9.27273 17.1515 8.48485 16.7045 7.63636 16.3864C6.78788 16.0682 5.90909 15.9091 5 15.9091C4.36364 15.9091 3.73864 15.9924 3.125 16.1591C2.51136 16.3258 1.92424 16.5606 1.36364 16.8636C1.04545 17.0303 0.738636 17.0227 0.443182 16.8409C0.147727 16.6591 0 16.3939 0 16.0455V5.09091C0 4.92424 0.0416667 4.76515 0.125 4.61364C0.208333 4.46212 0.333333 4.34848 0.5 4.27273C1.19697 3.90909 1.92424 3.63636 2.68182 3.45455C3.43939 3.27273 4.21212 3.18182 5 3.18182C5.87879 3.18182 6.73864 3.29545 7.57955 3.52273C8.42045 3.75 9.22727 4.09091 10 4.54545V16.0455C10.7727 15.5455 11.5833 15.1705 12.4318 14.9205C13.2803 14.6705 14.1364 14.5455 15 14.5455C15.5455 14.5455 16.1402 14.5985 16.7841 14.7045C17.428 14.8106 18.0455 15.0303 18.6364 15.3636V3.88636C18.7879 3.94697 18.9356 4.00757 19.0795 4.06818C19.2235 4.12879 19.3636 4.19697 19.5 4.27273C19.6515 4.36364 19.7727 4.48106 19.8636 4.625C19.9545 4.76894 20 4.92424 20 5.09091V16.0455C20 16.3939 19.8523 16.6591 19.5568 16.8409C19.2614 17.0227 18.9545 17.0303 18.6364 16.8636C18.0758 16.5606 17.4886 16.3258 16.875 16.1591C16.2614 15.9924 15.6364 15.9091 15 15.9091C14.0909 15.9091 13.2121 16.0682 12.3636 16.3864C11.5152 16.7045 10.7273 17.1515 10 17.7273ZM11.3636 13.9318V5.90909L17.2727 0V8.79545L11.3636 13.9318ZM8.63636 15.3636V5.38636C8.12121 5.09848 7.52273 4.88636 6.84091 4.75C6.15909 4.61364 5.54545 4.54545 5 4.54545C4.28788 4.54545 3.625 4.62121 3.01136 4.77273C2.39773 4.92424 1.84848 5.12121 1.36364 5.36364V15.3636C1.89394 15.1061 2.46591 14.9053 3.07955 14.7614C3.69318 14.6174 4.34091 14.5455 5.02273 14.5455C5.68939 14.5455 6.32576 14.6174 6.93182 14.7614C7.53788 14.9053 8.10606 15.1061 8.63636 15.3636ZM8.63636 15.3636V5.38636V15.3636Z" fill="#E05929"/>
</svg>