<svg width="20" height="20" viewBox="0 0 20 20" fill="none" xmlns="http://www.w3.org/2000/svg">
<g clip-path="url(#clip0)">
<path d="M8.25349 3.09593L1.45985 14.4374C1.31978 14.68 1.24566 14.955 1.24488 15.2351C1.2441 15.5152 1.31667 15.7906 1.45538 16.034C1.59408 16.2773 1.7941 16.4801 2.03551 16.6221C2.27692 16.7642 2.55132 16.8406 2.83141 16.8436H16.4187C16.6988 16.8406 16.9732 16.7642 17.2146 16.6221C17.456 16.4801 17.656 16.2773 17.7947 16.034C17.9334 15.7906 18.006 15.5152 18.0052 15.2351C18.0044 14.955 17.9303 14.68 17.7903 14.4374L10.9966 3.09593C10.8536 2.8602 10.6523 2.66531 10.4121 2.53005C10.1718 2.39479 9.90076 2.32373 9.62506 2.32373C9.34935 2.32373 9.0783 2.39479 8.83805 2.53005C8.59781 2.66531 8.39648 2.8602 8.25349 3.09593V3.09593Z" stroke="#BDBDBD" stroke-width="2" stroke-linecap="round" stroke-linejoin="round"/>
<path d="M9.625 7.21875V10.4271" stroke="#BDBDBD" stroke-width="2" stroke-linecap="round" stroke-linejoin="round"/>
<path d="M9.625 13.6353H9.63302" stroke="#BDBDBD" stroke-width="2" stroke-linecap="round" stroke-linejoin="round"/>
</g>
<defs>
<clipPath id="clip0">
<rect width="19.25" height="19.25" fill="white"/>
</clipPath>
</defs>
</svg>
