<svg width="20" height="20" viewBox="0 0 20 20" fill="none" xmlns="http://www.w3.org/2000/svg">
<path d="M11.6473 1.66675H4.99177C4.55048 1.66675 4.12726 1.84234 3.81522 2.1549C3.50318 2.46746 3.32788 2.89139 3.32788 3.33341V16.6667C3.32788 17.1088 3.50318 17.5327 3.81522 17.8453C4.12726 18.1578 4.55048 18.3334 4.99177 18.3334H14.9751C15.4164 18.3334 15.8396 18.1578 16.1517 17.8453C16.4637 17.5327 16.639 17.1088 16.639 16.6667V6.66675L11.6473 1.66675Z" stroke="#005D96" stroke-width="2" stroke-linecap="round" stroke-linejoin="round"/>
<path d="M11.6472 1.66675V6.66675H16.6389" stroke="#005D96" stroke-width="2" stroke-linecap="round" stroke-linejoin="round"/>
<path d="M13.3111 10.8333H6.65552" stroke="#005D96" stroke-width="2" stroke-linecap="round" stroke-linejoin="round"/>
<path d="M13.3111 14.1667H6.65552" stroke="#005D96" stroke-width="2" stroke-linecap="round" stroke-linejoin="round"/>
<path d="M8.31941 7.5H7.48746H6.65552" stroke="#005D96" stroke-width="2" stroke-linecap="round" stroke-linejoin="round"/>
</svg>
