<svg width="20" height="21" viewBox="0 0 20 21" fill="none" xmlns="http://www.w3.org/2000/svg">
<g clip-path="url(#clip0)">
    <path d="M8.26074 11.189C8.6155 11.6818 9.06811 12.0895 9.58787 12.3846C10.1076 12.6796 10.6824 12.8551 11.2731 12.899C11.8639 12.943 12.4568 12.8544 13.0118 12.6394C13.5667 12.4243 14.0706 12.0877 14.4893 11.6525L16.9675 9.07758C17.7199 8.26819 18.1362 7.18414 18.1268 6.05892C18.1174 4.93369 17.683 3.85733 16.9172 3.06165C16.1514 2.26596 15.1155 1.81463 14.0325 1.80485C12.9495 1.79507 11.9062 2.22763 11.1272 3.00937L9.70637 4.47707" stroke="#BDBDBD" stroke-width="2" stroke-linecap="round" stroke-linejoin="round"/>
    <path d="M11.5654 9.47295C11.2107 8.98017 10.7581 8.57243 10.2383 8.27738C9.71856 7.98233 9.14381 7.80688 8.55305 7.76292C7.96229 7.71896 7.36935 7.80752 6.81443 8.0226C6.25951 8.23768 5.75559 8.57424 5.33687 9.00946L2.85866 11.5844C2.10628 12.3938 1.68996 13.4778 1.69937 14.603C1.70879 15.7283 2.14317 16.8046 2.90897 17.6003C3.67477 18.396 4.71072 18.8473 5.79368 18.8571C6.87665 18.8669 7.91999 18.4343 8.69898 17.6526L10.1116 16.1849" stroke="#BDBDBD" stroke-width="2" stroke-linecap="round" stroke-linejoin="round"/>
</g>
<defs>
    <clipPath id="clip0">
        <rect width="19.8257" height="20.5993" fill="white" transform="translate(0 0.03125)"/>
    </clipPath>
</defs>
</svg>
