<svg width="22" height="22" viewBox="0 0 22 22" fill="none" xmlns="http://www.w3.org/2000/svg">
<path d="M19.2501 2.7H19.25L6.875 2.7L6.87485 2.7C6.4973 2.70113 6.13554 2.85161 5.86857 3.11857C5.60161 3.38554 5.45113 3.7473 5.45 4.12485V4.125L5.45 13.75L5.45 13.7501C5.45113 14.1277 5.60161 14.4895 5.86857 14.7564C6.13554 15.0234 6.4973 15.1739 6.87485 15.175H6.875H19.25H19.2501C19.6277 15.1739 19.9895 15.0234 20.2564 14.7564C20.5234 14.4895 20.6739 14.1277 20.675 13.7501V13.75V4.125V4.12485C20.6739 3.7473 20.5234 3.38554 20.2564 3.11857C19.9895 2.85161 19.6277 2.70113 19.2501 2.7ZM19.2 13.7H6.925V4.175H19.2V13.7Z" fill="#BBBBBB" stroke="#BDBDBD" stroke-width="0.1"/>
<path d="M12.325 16.5V17.825H2.8V11.05H4.125H4.175V11V9.625V9.575H4.125L2.75 9.575L2.74985 9.575C2.3723 9.57613 2.01054 9.72661 1.74357 9.99357C1.47661 10.2605 1.32613 10.6223 1.325 10.9999V11L1.325 17.875L1.325 17.8751C1.32613 18.2527 1.47661 18.6145 1.74357 18.8814C2.01054 19.1484 2.3723 19.2989 2.74985 19.3H2.75H12.375H12.3751C12.7527 19.2989 13.1145 19.1484 13.3814 18.8814C13.6484 18.6145 13.7989 18.2527 13.8 17.8751V17.875V16.5V16.45H13.75H12.375H12.325V16.5Z" fill="#BBBBBB" stroke="#BDBDBD" stroke-width="0.1"/>
</svg>
