<svg width="172" height="127" viewBox="0 0 172 127" fill="none" xmlns="http://www.w3.org/2000/svg">
  <path d="M77.063 96.5918H91.83V52.7598H77.063V96.5918Z" fill="white"/>
  <path d="M80.4268 51.0967L84.636 37.8639H116.274L120.622 51.1661H108.272V84.0742H93.1928V51.0967H80.4268Z" fill="white"/>
  <path d="M109.636 85.047H103.693V96.5879H127.468L130.336 85.0934H119.096V79.5776H123.629L126.358 68.4537H119.651V63.309H131.77L126.82 49.1261H121.27L122.333 52.1853H109.636V85.047Z" fill="white"/>
  <path d="M123.814 47.9447C123.814 47.9447 126.404 39.5785 135.331 40.7837C138.534 41.0745 140.512 42.406 140.512 42.406L144.767 54.1325C144.767 54.1325 140.466 50.4244 137.921 55.2449C137.921 55.2449 137.043 56.5425 138.615 59.6017C140.188 62.6608 144.582 72.5331 144.582 72.5331C144.582 72.5331 145.6 75.0358 145.137 77.4924C144.675 79.9489 143.287 86.1598 136.303 87.1329C131.77 87.6431 131.215 87.2721 131.215 87.2721L132.093 83.9349H124.137L126.059 76.3338H128.994C128.994 76.3338 131.076 75.731 130.336 72.7184L126.728 64.5147H133.388L127.653 47.9447H123.814Z" fill="white"/>
  <path d="M65.8472 95.586C65.8472 94.737 66.5991 94.0461 67.5232 94.0461C68.4473 94.0461 69.1992 94.737 69.1992 95.586C69.1992 96.4351 68.4473 97.1257 67.5232 97.1257C66.5991 97.1257 65.8472 96.4351 65.8472 95.586ZM65.3491 95.586C65.3491 96.7103 66.3245 97.625 67.5232 97.625C68.7221 97.625 69.6972 96.7103 69.6972 95.586C69.6972 94.4619 68.7221 93.5469 67.5232 93.5469C66.3245 93.5469 65.3491 94.4619 65.3491 95.586Z" fill="white"/>
  <path d="M68.0299 95.1131C68.0008 95.0684 67.9643 95.0287 67.9203 94.9947C67.8765 94.9607 67.8269 94.9342 67.7715 94.9151C67.7161 94.8963 67.6582 94.8868 67.5978 94.8868C67.487 94.8868 67.393 94.9072 67.3158 94.9483C67.2386 94.9894 67.1759 95.0443 67.1277 95.1133C67.0798 95.1825 67.0447 95.2608 67.0229 95.3489C67.0009 95.4369 66.9899 95.5279 66.9899 95.6219C66.9899 95.712 67.0009 95.7996 67.0229 95.8844C67.0447 95.9697 67.0798 96.0462 67.1277 96.1142C67.1759 96.1822 67.2386 96.2367 67.3158 96.2776C67.393 96.3185 67.487 96.3392 67.5978 96.3392C67.748 96.3392 67.8655 96.2953 67.95 96.2071C68.0346 96.1191 68.0863 96.0033 68.105 95.8592H68.5813C68.5686 95.9933 68.5364 96.1142 68.4841 96.2223C68.4321 96.3302 68.3632 96.4221 68.2772 96.4982C68.1917 96.5743 68.0915 96.6323 67.9767 96.6723C67.862 96.7122 67.7356 96.7324 67.5978 96.7324C67.4264 96.7324 67.2724 96.7039 67.1356 96.6467C66.9987 96.5898 66.8833 96.5111 66.7891 96.4113C66.6948 96.3111 66.6226 96.1936 66.5726 96.0584C66.5222 95.9234 66.4971 95.7779 66.4971 95.6219C66.4971 95.4618 66.5222 95.3131 66.5726 95.1761C66.6226 95.0391 66.6948 94.9197 66.7891 94.8175C66.8833 94.7153 66.9987 94.6354 67.1356 94.5773C67.2724 94.5193 67.4264 94.4903 67.5978 94.4903C67.7209 94.4903 67.8373 94.5073 67.9471 94.5414C68.0566 94.5755 68.1548 94.625 68.2413 94.6901C68.3281 94.7552 68.3995 94.8357 68.4559 94.9315C68.5124 95.0276 68.5479 95.1379 68.5624 95.2616H68.0863C68.078 95.2077 68.0591 95.158 68.0299 95.1131Z" fill="white"/>
  <path d="M76.0132 57.7474C76.0132 57.7474 71.3606 62.4288 65.9487 62.6605C60.537 62.8921 56.0963 58.7206 55.4488 54.7346C54.8013 50.7488 56.0039 46.809 60.3056 44.2133C60.3056 44.2133 65.44 40.6908 72.3783 44.1206L73.3958 44.6305L77.1861 32.4996C77.1861 32.4996 63.0086 25.0336 50.708 33.1753C44.0849 37.456 39.8546 44.9505 39.8546 53.5514C39.8546 56.0287 40.2099 58.1251 40.8706 59.8987C41.9662 63.5443 43.9602 66.6484 46.3868 68.8529C46.3868 68.8529 51.0934 73.7759 58.0504 75.673C57.7694 75.76 57.4882 75.8419 57.2074 75.9165C49.697 77.834 44.3209 78.0503 35.7879 73.9098C35.7365 73.8832 30.2917 71.4737 26.2227 67.5492C26.2227 67.5492 29.719 72.7336 33.393 75.4299C37.3578 78.3396 42.0592 81.2292 49.5502 82.6592C49.6042 82.6699 55.3513 83.7958 61.4787 81.8706C61.5574 81.8485 70.5238 79.1722 76.0132 74.3465V73.6187C70.632 78.3498 61.3883 81.2482 61.3017 81.2725C55.3233 83.1508 49.7258 82.0582 49.67 82.0468C42.2971 80.6397 37.6667 77.7931 33.7609 74.9267C31.9625 73.6068 30.4582 72.0222 28.9336 70.3626C32.4267 73.0086 35.4635 74.444 35.5091 74.4675C44.2225 78.6958 49.7044 78.4756 57.3639 76.5202C65.7785 74.2883 74.3783 66.4329 76.0132 64.8808V64.8446C76.0208 64.8375 76.0132 64.8327 76.0132 64.8327V57.7474Z" fill="white"/>
</svg>
